<!--?xml version="1.0" encoding="utf-8"?-->
<!-- Generator: Adobe Illustrator 18.1.1, SVG Export Plug-In . SVG Version: 6.00 Build 0)  -->

<svg version="1.1" id="_x31_0" xmlns="http://www.w3.org/2000/svg" xmlns:xlink="http://www.w3.org/1999/xlink" x="0px" y="0px" viewBox="0 0 512 512" style="width: 48px; height: 48px; opacity: 1;" xml:space="preserve">
<style type="text/css">
	.st0{fill:#374149;}
</style>
<g>
	<path class="st0" d="M505.406,240.086l-59.266-59.266c-3.219-3.218-7.278-5.378-11.734-6.242c-2.879-0.555-5.797-0.555-8.676,0
		c-1.438,0.281-2.855,0.699-4.211,1.25c-2.824,1.145-5.355,2.824-7.523,4.992c-2.676,2.676-4.652,5.997-5.722,9.606
		c-0.618,2.098-0.934,4.274-0.934,6.469c0,2.191,0.316,4.367,0.938,6.465c0.418,1.418,0.98,2.797,1.668,4.106
		c1.058,2.019,2.422,3.871,4.05,5.5l11.938,11.938l8.218,8.375H299.859c-0.039,0-0.074-0.012-0.113-0.012h-21.008v-91.187
		l0.113-64.274l20.199,20.203c2.676,2.672,5.997,4.652,9.606,5.718c2.098,0.622,4.274,0.938,6.469,0.938
		c2.192,0,4.367-0.316,6.465-0.938c1.418-0.418,2.801-0.98,4.106-1.664c2.02-1.062,3.871-2.426,5.5-4.054
		c8.863-8.863,8.863-23.282,0-32.145L271.93,6.598C267.676,2.344,262.023,0,256.008,0c-6.012,0-11.668,2.344-15.922,6.598
		L180.82,65.863c-3.218,3.219-5.378,7.278-6.242,11.734c-0.555,2.879-0.555,5.797,0,8.676c0.281,1.438,0.699,2.855,1.25,4.21
		c1.145,2.825,2.824,5.352,4.992,7.524c2.676,2.672,6,4.652,9.606,5.718c2.098,0.622,4.274,0.938,6.469,0.938
		c2.191,0,4.367-0.316,6.465-0.938c1.418-0.418,2.801-0.98,4.106-1.664c2.019-1.062,3.871-2.426,5.5-4.054l11.957-11.961
		l8.356-8.196v134.294c0,0.038-0.008,0.074-0.008,0.113v21.008h-91.191l-64.274-0.11l20.203-20.203c2.675-2.675,4.652-6,5.722-9.605
		c0.618-2.098,0.934-4.274,0.934-6.465c0-2.196-0.316-4.371-0.938-6.469c-0.418-1.418-0.98-2.801-1.664-4.106
		c-1.062-2.02-2.43-3.871-4.054-5.5c-8.863-8.863-23.282-8.863-32.145,0L6.598,240.074C2.344,244.328,0,249.981,0,255.996
		c0,6.012,2.344,11.668,6.598,15.918l59.266,59.266c3.222,3.222,7.278,5.382,11.734,6.242c2.879,0.559,5.797,0.559,8.676,0
		c1.438-0.277,2.855-0.695,4.21-1.246c2.825-1.145,5.352-2.825,7.524-4.996c2.675-2.672,4.652-5.993,5.722-9.602
		c0.618-2.098,0.934-4.274,0.934-6.469c0-2.192-0.316-4.367-0.938-6.465c-0.418-1.418-0.98-2.801-1.664-4.106
		c-1.062-2.02-2.43-3.871-4.054-5.5l-11.965-11.961l-8.192-8.352h134.298c0.034,0,0.07,0.012,0.109,0.012h21.012v90.91l-0.114,64.55
		l-20.203-20.203c-2.675-2.676-5.996-4.652-9.605-5.722c-2.098-0.618-4.274-0.934-6.465-0.934c-2.196,0-4.371,0.316-6.469,0.938
		c-1.418,0.418-2.801,0.98-4.106,1.664c-2.02,1.062-3.871,2.426-5.5,4.054c-8.863,8.863-8.863,23.282,0,32.145l59.266,59.266
		c4.254,4.254,9.91,6.594,15.922,6.594c6.012,0,11.668-2.34,15.922-6.594l59.266-59.266c3.219-3.219,5.379-7.278,6.242-11.734
		c0.555-2.879,0.555-5.797,0-8.676c-0.281-1.438-0.699-2.855-1.25-4.211c-1.145-2.824-2.825-5.351-4.993-7.523
		c-2.675-2.676-5.996-4.652-9.605-5.722c-2.098-0.618-4.274-0.934-6.469-0.934c-2.192,0-4.367,0.316-6.465,0.938
		c-1.418,0.418-2.801,0.98-4.106,1.664c-2.02,1.062-3.871,2.426-5.5,4.054l-11.942,11.946l-8.371,8.21V299.855
		c0-0.035,0.012-0.07,0.012-0.109v-21.008h91.465l63.996,0.11l-20.203,20.202c-2.676,2.676-4.652,5.997-5.722,9.606
		c-0.618,2.098-0.934,4.274-0.934,6.465c0,2.196,0.316,4.371,0.938,6.469c0.418,1.418,0.98,2.801,1.668,4.106
		c1.058,2.02,2.422,3.871,4.05,5.5c8.863,8.863,23.286,8.863,32.145,0l59.266-59.266c4.254-4.254,6.594-9.91,6.594-15.922
		C512,249.996,509.66,244.34,505.406,240.086z"></path>
</g>
</svg>
