<!--?xml version="1.0" encoding="utf-8"?-->
<!-- Generator: Adobe Illustrator 19.1.1, SVG Export Plug-In . SVG Version: 6.00 Build 0)  -->
<svg version="1.1" id="_x31_0" xmlns="http://www.w3.org/2000/svg" xmlns:xlink="http://www.w3.org/1999/xlink" x="0px" y="0px" viewBox="0 0 512 512" style="width: 48px; height: 48px; opacity: 1;" xml:space="preserve">
<style type="text/css">
	.st0{fill:#374149;}
</style>
<g>
	<polygon class="st0" points="193.566,321.604 76.641,321.604 76.282,321.604 76.282,321.604 76.122,321.604 76.122,361.605 
		193.566,361.605 	" style="fill: rgb(75, 75, 75);"></polygon>
	<path class="st0" d="M76.282,393.606h-0.16v52.24c0,6.481,5.282,11.84,11.84,11.84h93.765c6.558,0,11.84-5.359,11.84-11.84v-52.24
		H76.641H76.282L76.282,393.606z" style="fill: rgb(75, 75, 75);"></path>
	<path class="st0" d="M193.566,252.16c0-6.481,5.278-11.84,11.84-11.84h52.482c9.758,0,15.278-11.118,9.438-18.879L144.284,59.034
		c-4.719-6.238-14.161-6.238-18.88,0L2.439,221.441c-5.918,7.762-0.398,18.879,9.36,18.879h52.482c6.558,0,11.84,5.359,11.84,11.84
		v37.442h117.445V252.16z" style="fill: rgb(75, 75, 75);"></path>
	<path class="st0" d="M435.894,66.154c0-6.558-5.359-11.84-11.84-11.84h-93.842c-6.481,0-11.762,5.282-11.762,11.84v52.162h117.445
		V66.154z" style="fill: rgb(75, 75, 75);"></path>
	<polygon class="st0" points="318.449,190.318 435.894,190.318 435.894,150.318 318.969,150.318 318.609,150.318 318.609,150.318 
		318.449,150.318 	" style="fill: rgb(75, 75, 75);"></polygon>
	<path class="st0" d="M500.134,271.602h-52.482c-6.481,0-11.758-5.282-11.758-11.762v-37.521H318.969h-0.36l0,0h-0.16v37.521
		c0,6.481-5.359,11.762-11.84,11.762h-52.482c-9.762,0-15.359,11.199-9.442,18.962l123.047,162.403
		c4.718,6.242,14.078,6.242,18.801,0l123.043-162.403C515.494,282.802,509.896,271.602,500.134,271.602z" style="fill: rgb(75, 75, 75);"></path>
</g>
</svg>
